<svg width="32" height="32" viewBox="0 0 32 32" fill="none" xmlns="http://www.w3.org/2000/svg">
<path d="M7.81876 12.9585H5.44144C5.84304 7.54018 10.4251 3.25313 16 3.25313C20.4115 3.25313 24.4034 6.00339 25.9333 10.0969C26.1638 10.7137 26.8559 11.0287 27.4791 10.8006C28.1023 10.5724 28.4206 9.8874 28.1901 9.27054C27.2783 6.83073 25.6583 4.74294 23.5055 3.23282C21.3032 1.68799 18.7078 0.871429 16 0.871429C12.5293 0.871429 9.26624 2.20923 6.81204 4.63838C4.38985 7.03586 3.04265 10.2133 3.00788 13.5984C1.57003 14.4231 0.600006 15.962 0.600006 17.7219V21.7708C0.600006 24.3974 2.75889 26.5342 5.41251 26.5342H7.81876C8.48324 26.5342 9.02188 26.0011 9.02188 25.3434V14.1494C9.02188 13.4917 8.48324 12.9585 7.81876 12.9585ZM6.61563 24.1525H5.41251C4.0857 24.1525 3.00626 23.0841 3.00626 21.7708V17.7219C3.00626 16.4087 4.0857 15.3402 5.41251 15.3402H6.61563V24.1525Z" fill="#7D8193"/>
<path d="M26.5875 12.9585H24.1812C23.5168 12.9585 22.9781 13.4917 22.9781 14.1494V22.3067V25.3434V26.5938C22.9781 27.2504 22.4384 27.7846 21.775 27.7846H18.1055V27.8224C17.6951 27.0898 16.9062 26.5938 16 26.5938C14.6711 26.5938 13.5938 27.6601 13.5938 28.9755C13.5938 30.2908 14.6711 31.3571 16 31.3571C16.9062 31.3571 17.6951 30.8611 18.1055 30.1285V30.1663H21.775C23.7652 30.1663 25.3844 28.5637 25.3844 26.5938V26.5342H26.5875C29.2411 26.5342 31.4 24.3974 31.4 21.7708V17.7219C31.4 15.0954 29.2411 12.9585 26.5875 12.9585ZM28.9937 21.7708C28.9937 23.0841 27.9143 24.1525 26.5875 24.1525H25.3844V22.3067V15.3402H26.5875C27.9143 15.3402 28.9937 16.4087 28.9937 17.7219V21.7708Z" fill="#7D8193"/>
</svg>
