<svg width="26" height="31" viewBox="0 0 26 31" fill="none" xmlns="http://www.w3.org/2000/svg">
<path d="M16.5933 26.7007C16.5713 27.6772 16.1826 28.608 15.5075 29.3015C14.8323 29.9949 13.9219 30.3983 12.9637 30.4286C11.9977 30.402 11.0779 30.0022 10.3908 29.3099C9.7037 28.6175 9.30087 27.6846 9.26405 26.7007H16.5933ZM16.7601 5.47737C16.3724 5.24597 16.0509 4.91515 15.8278 4.51774C15.6046 4.12032 15.4876 3.67011 15.4883 3.21226C15.4905 2.86761 15.4259 2.52599 15.2984 2.20675C15.171 1.88752 14.983 1.59682 14.7453 1.3516C14.5077 1.10638 14.2249 0.911371 13.9132 0.777494C13.6015 0.643617 13.2669 0.573589 12.9287 0.571442C12.5903 0.573394 12.2556 0.64334 11.9438 0.77713C11.6319 0.910919 11.3489 1.10599 11.1111 1.35124C10.8733 1.59648 10.6852 1.88705 10.5576 2.20639C10.4301 2.52572 10.3654 2.86749 10.3676 3.21226C10.3686 3.67017 10.2517 4.12027 10.0285 4.51774C9.80532 4.91521 9.48372 5.2462 9.09577 5.47737C3.38816 8.84736 6.67069 20.0561 0.714294 22.0289V24.2048H25.1429V22.0289C19.185 20.0561 22.4648 8.84736 16.7601 5.47737ZM12.9287 1.81212C13.2524 1.81212 13.5628 1.94295 13.7917 2.17617C14.0206 2.40939 14.1492 2.72589 14.1492 3.05571C14.1494 3.21915 14.1179 3.3812 14.0567 3.53226C13.9954 3.68331 13.9056 3.82035 13.7923 3.93599C13.6789 4.05162 13.5442 4.14352 13.396 4.20611C13.2478 4.2687 13.0891 4.30076 12.9287 4.30076C12.6046 4.30076 12.2937 4.16949 12.0645 3.93599C11.8354 3.70248 11.7067 3.38594 11.7067 3.05571C11.7071 2.72575 11.836 2.40935 12.0651 2.17617C12.2942 1.94299 12.6048 1.81212 12.9287 1.81212ZM5.0492 21.7234C6.34258 19.5115 7.16023 17.0449 7.44791 14.4869C7.9938 11.5046 8.50889 8.70256 10.3236 7.62745C11.1123 7.15078 12.0124 6.89935 12.9294 6.89935C13.8464 6.89935 14.7465 7.15078 15.5352 7.62745C17.3484 8.69958 17.8635 11.5046 18.4109 14.4869C18.6979 17.045 19.5156 19.5118 20.8096 21.7234H5.0492Z" fill="#7D8193"/>
</svg>
