<svg width="30" height="30" viewBox="0 0 30 30" fill="none" xmlns="http://www.w3.org/2000/svg">
<path d="M15.0007 2.49991C18.3147 2.50348 21.4919 3.8214 23.8352 6.16476C26.1786 8.50812 27.4967 11.6854 27.5003 14.9995C27.4967 18.3136 26.1787 21.4909 23.8354 23.8345C21.4921 26.1781 18.3149 27.4965 15.0007 27.5005C11.6864 27.4965 8.50905 26.1781 6.16549 23.8345C3.82193 21.491 2.50351 18.3137 2.49954 14.9995C2.50351 11.6853 3.82189 8.50808 6.16549 6.16476C8.50909 3.82144 11.6866 2.50348 15.0007 2.49991ZM15.0007 0C11.0225 -1.98265e-08 7.20727 1.58035 4.39413 4.39321C1.58099 7.20608 0.000397183 11.0213 0 14.9995C0.000397137 18.9778 1.58085 22.793 4.39394 25.6061C7.20704 28.4192 11.0224 29.9996 15.0007 30C18.9789 29.9996 22.7939 28.4192 25.6068 25.6061C28.4196 22.7929 30 18.9776 30 14.9995C30 11.0214 28.4197 7.20612 25.6068 4.39321C22.7939 1.58031 18.9788 0 15.0007 0ZM16.5628 21.2494C16.5628 21.6638 16.3982 22.0612 16.1053 22.3544C15.8124 22.6476 15.4152 22.8125 15.0007 22.8129C14.5862 22.8125 14.1887 22.6475 13.8956 22.3544C13.6024 22.0612 13.4375 21.664 13.4371 21.2494C13.4378 20.8351 13.6028 20.438 13.8959 20.1452C14.189 19.8523 14.5864 19.6874 15.0007 19.687C15.4152 19.6874 15.8124 19.8523 16.1053 20.1455C16.3982 20.4387 16.5628 20.8364 16.5628 21.2509V21.2494ZM18.3045 8.75242C17.8786 8.35147 17.3773 8.03924 16.8297 7.83356C16.2821 7.62788 15.699 7.53316 15.1144 7.55457C12.3902 7.55457 10.6214 9.49078 10.6214 12.4966H13.1361C13.1361 10.638 14.171 9.97916 15.0576 9.97916C15.4855 9.96297 15.9028 10.1141 16.2213 10.4004C16.5397 10.6867 16.7342 11.0855 16.7635 11.5127C16.8399 12.5715 16.2752 13.1092 15.5653 13.7892C14.9057 14.2847 14.3914 14.9488 14.0766 15.7114C13.7617 16.4739 13.6578 17.307 13.7756 18.1235H16.2812C16.2498 17.61 16.3391 17.0965 16.5419 16.6236C16.7448 16.1508 17.0557 15.7321 17.4494 15.4009C18.5595 14.442 19.2489 13.0858 19.3694 11.6238C19.3944 11.0986 19.3134 10.5737 19.1312 10.0804C18.9491 9.58719 18.6694 9.13534 18.3091 8.75242H18.3045Z" fill="#7D8193"/>
</svg>
